<?xml version="1.0" encoding="utf-8"?>
<!-- Generator: Adobe Illustrator 27.0.0, SVG Export Plug-In . SVG Version: 6.00 Build 0)  -->
<svg version="1.1" xmlns="http://www.w3.org/2000/svg" xmlns:xlink="http://www.w3.org/1999/xlink" x="0px" y="0px"
	 viewBox="0 0 357.8 307.2" style="enable-background:new 0 0 357.8 307.2;" xml:space="preserve">
<style type="text/css">
	.st0{fill:#2A7C61;}
</style>
<g id="Bg">
</g>
<g id="Object">
	<g>
		<g>
			<path class="st0" d="M322.2,111H279h-17.5h-33.3c-2.4,0-4.2-2.3-3.5-4.6c3.8-13.6,4.2-28.3,4.2-42.2c0-7.7,0.4-16.4-0.5-24.8
				c-0.9-8.6-3-16.8-8-23.3c-5.6-7.2-13.9-12.6-23.2-12.6c-21.5,0-24.9,21-26.9,38.1c-2.3,19.9-3.3,40.5-12.1,58.8
				c-6.2,12.8-14.9,23.9-28.6,29.3c-10.5,4.2-18.3,7.4-29.4,9.6c-1.7,0.3-3,1.8-3,3.6v139c0,2,1.6,3.7,3.7,3.7h38.5
				c1.2,0,2.2,0.6,2.9,1.5c7.6,10.2,19.7,16.8,33.4,16.8h59.8H279h17.2c17.6,0,32-14.4,32-32l0,0c0-4.6-1.1-8.9-3-12.7
				c-0.8-1.5-0.4-3.4,1-4.4c6.5-5.2,10.7-17.1,10.7-26V225c0-4.6-1.1-8.9-3-12.7c-0.8-1.5-0.4-3.4,1-4.4
				c6.5-5.2,10.7-13.2,10.7-22.1v-3.7c0-4.6-1.1-8.9-3-12.7c-0.8-1.5-0.4-3.4,1-4.4c6.5-5.2,10.7-13.2,10.7-22.1l0,0
				C354.2,125.3,339.8,111,322.2,111z"/>
			<path class="st0" d="M74.8,299.7H6.5c-1.6,0-2.9-1.3-2.9-2.9V126.4c0-1.6,1.3-2.9,2.9-2.9h68.3c1.6,0,2.9,1.3,2.9,2.9v170.3
				C77.8,298.4,76.4,299.7,74.8,299.7z"/>
		</g>
	</g>
</g>
</svg>
