<?xml version="1.0" encoding="utf-8"?>
<!-- Generator: Adobe Illustrator 27.0.0, SVG Export Plug-In . SVG Version: 6.00 Build 0)  -->
<svg version="1.1" id="Layer_1" xmlns="http://www.w3.org/2000/svg" xmlns:xlink="http://www.w3.org/1999/xlink" x="0px" y="0px"
	 viewBox="0 0 385.1 160.4" style="enable-background:new 0 0 385.1 160.4;" xml:space="preserve">
<style type="text/css">
	.st0{fill:#0D4D89;}
	.st1{fill:#297C61;}
	.st2{fill:#A4D6AE;}
	.st3{clip-path:url(#SVGID_00000162348505395556845730000002778908003540612738_);}
	.st4{opacity:0.65;fill:#339CD6;}
</style>
<g>
	<g>
		<g>
			<path class="st0" d="M25.2,120.2c-4.4-1.8-7-3-7.8-3.5c-2.1-1.4-3.1-3-3.1-4.9c0-2.7,0.9-6.3,8.6-6.3c2.9,0,5.8,0.5,8.6,1.4
				l1,0.3l1.1-9.2l-0.8-0.2c-3.1-0.7-6.4-1-9.6-1c-6.1,0-10.9,1.5-14.4,4.4c-3.4,2.9-5.2,6.8-5.2,11.6c0,4,1.3,7.3,3.8,9.7
				c1.7,1.7,4.4,3.3,8.1,4.8c5.3,2.1,7.1,3,7.6,3.4c2.1,1.4,3.1,3,3.1,5.1c0,3-1,7-9.2,7c-3.5,0-7.2-0.7-10.7-2.1l-1.1-0.4l-1.2,9.9
				l0.7,0.2c3.6,1,7.6,1.5,11.9,1.5c6,0,11-1.6,14.7-4.8c3.8-3.2,5.7-7.3,5.7-12.4c0-3.9-1.3-7.2-3.9-9.7
				C31.6,123.4,28.9,121.8,25.2,120.2z"/>
			<path class="st0" d="M79.6,103.7c-1.3-3.7-4.8-6.1-8.7-6.1h-4.4l-19.1,53.6h10.3l4-11.4h19.7l3.9,11.4h11.2L79.6,103.7z
				 M64.5,131.3l5.8-16.4c0.5-1.4,0.9-2.8,1.3-4.2c0.4,1.2,0.8,2.6,1.4,4.2l5.8,16.4H64.5z"/>
			<path class="st0" d="M120.7,106.9c0-5.1-4.1-9.2-9.2-9.2h-0.9v53.6H142v-9.1h-21.2V106.9z"/>
			<path class="st0" d="M156.8,97.6h-0.9v53.6H166v-44.3C166,101.8,161.9,97.6,156.8,97.6z"/>
			<path class="st0" d="M217.7,139.5l-1.1,0.6c-3,1.6-6.4,2.4-10.3,2.4c-10.4,0-15.5-5.9-15.5-18.1c0-5.4,1.2-9.8,3.6-13
				c2.6-3.4,6.3-5.1,11.2-5.1c3.6,0,7.2,0.6,10.6,1.9l1,0.4l1.5-9.5l-0.7-0.2c-3.6-1.1-7.6-1.7-11.8-1.7c-8.6,0-15.3,2.8-20,8.2
				c-4.3,5-6.5,11.9-6.5,20.5c0,7.7,1.9,13.9,5.6,18.3c4.2,5.1,10.6,7.6,19,7.6c5.1,0,9.9-0.9,14.2-2.7l0.7-0.3L217.7,139.5z"/>
		</g>
		<g>
			<path class="st0" d="M43.6,36.9h-5.1c-4.8,0-4.8-1.7-4.8-2.3c0-0.6,0-1.9,3.1-1.9c0.9,0,2.1,0.1,3.7,0.3l0.9,0.1l1-6.8l-0.9-0.1
				c-2.1-0.2-3.6-0.3-4.4-0.3c-3.7,0-6.6,0.9-8.6,2.8c-1.8,1.6-2.7,3.7-2.7,6.2c0,0.9,0.1,1.6,0.4,2.2c-0.8-0.1-1.6-0.1-2.6-0.1
				h-0.9v6.8h20.9V36.9z"/>
			<path class="st0" d="M97.3,21.3h-0.9v45.4H59.6V30.5c0-5.1-4.1-9.2-9.3-9.2h-0.9v45.4H32.9c-7.1,0-12.2-1.3-15.1-4
				c-2.6-2.4-4-6.4-4-12c0-4.5,0.9-8.7,2.8-12.6l0.7-1.6L6.1,38.5L5.9,39c-1.5,3.8-2.3,8.1-2.3,12.8c0,7.6,2.2,13.5,6.5,17.3
				c4.6,4,12,6.1,21.9,6.1h74.7V30.5C106.7,25.4,102.5,21.3,97.3,21.3z"/>
			<path class="st0" d="M219.4,56.9c0,6-0.4,11.9-1.2,17.5l-0.1,0.8h-11.2c-4.7,0-8.1-0.4-10.4-1.2c-1.9-0.7-3.5-1.9-4.7-3.6
				c-2.2,3.5-6.1,5.3-11.6,5.3c-5,0-8.4-1.7-10.1-5c-1.9,3-5.3,4.5-10.2,4.5h-41.2V21.3h0.9c5.2,0,9.3,4.1,9.3,9.2v36.1h31.1
				c2.4,0,4.1-0.6,5-1.7c1-1.3,1.5-3.8,1.5-7.4V41.9h10.2v14.9c0,5.1,0.5,7.2,0.9,8.1c0.6,1.6,2,2.3,4.2,2.3c1.5,0,6.2,0,6.2-10.4
				v-15h9.8v17.3c0,3.2,0.6,5.2,1.9,6.1c0.8,0.6,2.8,1.3,7.5,1.3h1.5c0.3-3.4,0.5-6.5,0.5-9.1c0-5.5-0.5-10.7-1.3-15.6h10.3
				C219,46.7,219.4,51.7,219.4,56.9z"/>
		</g>
	</g>
	<g>
		<g>
			<g>
				<g>
					<g>
						<path class="st1" d="M381.5,57.9v33.3c0,37.1-12.4,48.2-30.8,54.5l-28.6,10.8l-3.2,1.2l-3.2-1.2l-28.6-10.8
							c-18.4-6.4-30.8-17.4-30.8-54.5V57.9c2.5,33,18.9,47.2,18.9,47.2c4,4.9,9.3,8.7,15.5,10.9l28.2,11l28.1-11
							c6.2-2.2,11.6-6,15.5-10.9C362.6,105.1,378.9,90.8,381.5,57.9z"/>
						<path class="st2" d="M275.2,105.1L275.2,105.1c0,0-16.4-14.2-18.9-47.2V31.1l0.2-0.1l10.9-7.3c0,21,0.1,59.5,0.1,59.5
							C267.5,91.4,270.3,99,275.2,105.1z"/>
					</g>
					<g>
						<path class="st2" d="M381.5,31.1v26.8c-2.5,33-18.9,47.2-18.9,47.2v0c4.9-6,7.7-13.7,7.7-21.8c0,0,0.1-38.6,0.1-59.5l10.9,7.3
							L381.5,31.1z"/>
					</g>
				</g>
				<g>
					<defs>
						<path id="SVGID_1_" d="M352.7,70.2c0-18.7-33.8-67.6-33.8-67.6s-33.8,48.9-33.8,67.6s15.1,33.8,33.8,33.8
							S352.7,88.8,352.7,70.2z"/>
					</defs>
					<clipPath id="SVGID_00000086676907672652672680000001767157046086967706_">
						<use xlink:href="#SVGID_1_"  style="overflow:visible;"/>
					</clipPath>
					<g style="clip-path:url(#SVGID_00000086676907672652672680000001767157046086967706_);">
						<path class="st4" d="M305,20l4.3-7.7l21.1,12.1l14.5,28.1l3.3,41.1L326.4,111c0,0-24.8,1.4-31.8-4.2l6.4-53L305,20z"/>
						<g>
							<g>
								<defs>
									<path id="SVGID_00000119801602471730569540000007134486417486590100_" d="M324.3,60.2c0,0.3,0,0.5,0,0.8c0,0.2,0,0.5,0,0.7
										c0,0.4,0,0.8,0,1.2c0,0.1,0,0.3,0,0.4c0,0.2,0,0.4,0,0.6c0,0.2,0,0.5-0.1,0.7c0,0.2,0,0.5-0.1,0.7c0,0.5-0.1,1-0.2,1.5
										c0,0.2,0,0.4-0.1,0.6c0,0.2,0,0.3-0.1,0.5c-0.2,1.3-0.5,2.7-0.8,4c-3.6,15.4-14.1,28.2-28,34.9c0,0,0,0,0,0
										c-0.1,0-0.2,0-0.3,0c-6.1-3.6-10.7-11.8-12.8-18.2c-2.5-8-1.8-16,0.7-23.7c0.2-3.8,12.3-26.5,22.4-44.9c1,0.8,2,1.7,3,2.6
										c0.2,0.1,0.3,0.3,0.5,0.4c0.2,0.2,0.3,0.3,0.5,0.5c0.2,0.2,0.3,0.3,0.5,0.5c0.2,0.2,0.3,0.3,0.5,0.5
										c0.1,0.1,0.2,0.2,0.3,0.3c1.2,1.3,2.4,2.6,3.4,4.1c0.1,0.2,0.3,0.3,0.4,0.5c0.1,0.1,0.2,0.2,0.2,0.3
										c0.1,0.1,0.2,0.2,0.3,0.3c0.1,0.2,0.3,0.4,0.4,0.5c0.1,0.2,0.3,0.4,0.4,0.5c0.6,0.9,1.2,1.8,1.8,2.8
										c0.1,0.2,0.2,0.3,0.3,0.5c0.7,1.1,1.3,2.3,1.9,3.5c0.1,0.1,0.1,0.2,0.2,0.4c0.4,0.9,0.8,1.8,1.2,2.8
										c0.1,0.2,0.2,0.4,0.2,0.6c0.3,0.7,0.5,1.4,0.8,2.2c0.1,0.2,0.1,0.4,0.2,0.6c0.1,0.2,0.1,0.4,0.2,0.6
										c0.1,0.4,0.2,0.7,0.3,1.1c0.1,0.2,0.1,0.4,0.2,0.6c0.1,0.2,0.1,0.5,0.2,0.8c0.1,0.4,0.2,0.8,0.3,1.2
										c0.2,0.8,0.4,1.7,0.5,2.5c0,0.2,0.1,0.4,0.1,0.6c0,0.2,0.1,0.4,0.1,0.6c0,0.2,0.1,0.4,0.1,0.6c0,0.1,0,0.3,0.1,0.4
										c0,0.2,0.1,0.4,0.1,0.6c0,0,0,0,0,0.1c0,0.2,0,0.3,0.1,0.5c0.1,0.5,0.1,1,0.1,1.5c0,0.2,0,0.5,0.1,0.7c0,0.2,0,0.3,0,0.5
										C324.2,58.2,324.3,59.2,324.3,60.2z M355.2,64.9c0-0.4-0.1-0.9-0.4-1.5c0-0.1-0.1-0.3-0.1-0.4c0-0.1-0.1-0.2-0.1-0.3
										c-2-5.5-8.7-18.5-15.8-31.7c0-0.1-0.1-0.1-0.1-0.2c-2-3.6-4-7.3-6-10.9C325.5,7.2,319-4.4,318.8-4.7c0,0-4.3,7.6-10,17.8
										c1,0.5,2,1,2.9,1.6l0.1-0.2c0,0.1,0,0.2,0,0.3c5.3,3.1,10.1,7,14.3,11.5c10.3,11.2,16.7,26.1,16.7,42.5
										c0,5.9-0.8,11.8-2.4,17.4c-0.9,3.3-2.2,6.5-3.7,9.6c-0.9,1.7-1.9,3.5-3.1,5.4c-1.9,3-4.3,6.3-7.2,9.9
										c1.8,0.1,3.5,0,5.1-0.2c10.8-1.2,15.8-7.4,15.8-7.4c4-4.1,7-9.9,8.5-14.8c1.1-3.5,1.6-7,1.5-10.5
										C357.4,73.7,356.6,69.2,355.2,64.9z"/>
								</defs>
								<use xlink:href="#SVGID_00000119801602471730569540000007134486417486590100_"  style="overflow:visible;fill:#339CD6;"/>
								<clipPath id="SVGID_00000033356081086601551160000017341517114212908445_">
									<use xlink:href="#SVGID_00000119801602471730569540000007134486417486590100_"  style="overflow:visible;"/>
								</clipPath>
							</g>
						</g>
					</g>
				</g>
			</g>
		</g>
	</g>
</g>
</svg>
