<?xml version="1.0" encoding="utf-8"?>
<!-- Generator: Adobe Illustrator 27.0.0, SVG Export Plug-In . SVG Version: 6.00 Build 0)  -->
<svg version="1.1" id="Layer_1" xmlns="http://www.w3.org/2000/svg" xmlns:xlink="http://www.w3.org/1999/xlink" x="0px" y="0px"
	 viewBox="0 0 295.8 319.9" style="enable-background:new 0 0 295.8 319.9;" xml:space="preserve">
<style type="text/css">
	.st0{fill:#297C61;}
	.st1{fill:#A4D6AE;}
	.st2{clip-path:url(#SVGID_00000075139142495188931360000005103126661084003005_);}
	.st3{opacity:0.65;fill:#339CD6;}
	.st4{fill:#0D4D89;}
</style>
<g>
	<g>
		<g>
			<g>
				<g>
					<g>
						<path class="st0" d="M195.8,47.1v25.5c0,28.5-9.5,36.9-23.6,41.8l-21.9,8.3l-2.4,0.9l-2.4-0.9l-21.9-8.3
							c-14.1-4.9-23.6-13.3-23.6-41.8V47.1c1.9,25.3,14.5,36.1,14.5,36.1c3.1,3.8,7.1,6.7,11.9,8.3l21.6,8.4l21.6-8.4
							c4.8-1.7,8.9-4.6,11.9-8.3C181.4,83.2,193.9,72.3,195.8,47.1z"/>
						<path class="st1" d="M114.4,83.2L114.4,83.2c0,0-12.5-10.9-14.5-36.1V26.6l0.1-0.1l8.4-5.6c0,16.1,0,45.6,0,45.6
							C108.5,72.8,110.7,78.6,114.4,83.2z"/>
					</g>
					<g>
						<path class="st1" d="M195.8,26.6v20.5c-1.9,25.3-14.5,36.1-14.5,36.1v0c3.7-4.6,5.9-10.5,5.9-16.7c0,0,0-29.6,0-45.6l8.4,5.6
							L195.8,26.6z"/>
					</g>
				</g>
				<g>
					<defs>
						<path id="SVGID_1_" d="M173.8,56.5c0-14.3-25.9-51.8-25.9-51.8S122,42.2,122,56.5s11.6,25.9,25.9,25.9
							C162.2,82.4,173.8,70.8,173.8,56.5z"/>
					</defs>
					<clipPath id="SVGID_00000106134066511563002910000008304701335997801653_">
						<use xlink:href="#SVGID_1_"  style="overflow:visible;"/>
					</clipPath>
					<g style="clip-path:url(#SVGID_00000106134066511563002910000008304701335997801653_);">
						<path class="st3" d="M137.3,18l3.3-5.9l16.2,9.3L167.8,43l2.6,31.5l-16.7,13.4c0,0-19,1.1-24.4-3.2l4.9-40.6L137.3,18z"/>
						<g>
							<g>
								<defs>
									<path id="SVGID_00000034073025122379798100000016871196635795637432_" d="M152,48.9c0,0.2,0,0.4,0,0.6c0,0.2,0,0.4,0,0.6
										c0,0.3,0,0.6,0,0.9c0,0.1,0,0.2,0,0.3c0,0.1,0,0.3,0,0.4c0,0.2,0,0.4,0,0.6c0,0.2,0,0.4-0.1,0.6c0,0.4-0.1,0.7-0.1,1.1
										c0,0.1,0,0.3-0.1,0.4c0,0.1,0,0.3-0.1,0.4c-0.2,1-0.3,2-0.6,3c-2.7,11.8-10.8,21.6-21.5,26.8c0,0,0,0,0,0
										c-0.1,0-0.1,0-0.2,0c-4.7-2.8-8.2-9-9.8-14c-1.9-6.1-1.3-12.3,0.6-18.2c0.2-2.9,9.4-20.3,17.2-34.4c0.8,0.6,1.5,1.3,2.3,2
										c0.1,0.1,0.2,0.2,0.4,0.3c0.1,0.1,0.2,0.2,0.4,0.4c0.1,0.1,0.2,0.2,0.4,0.4c0.1,0.1,0.2,0.2,0.3,0.4
										c0.1,0.1,0.2,0.2,0.2,0.2c0.9,1,1.8,2,2.6,3.1c0.1,0.1,0.2,0.3,0.3,0.4c0.1,0.1,0.1,0.2,0.2,0.2c0.1,0.1,0.1,0.2,0.2,0.3
										c0.1,0.1,0.2,0.3,0.3,0.4c0.1,0.1,0.2,0.3,0.3,0.4c0.5,0.7,0.9,1.4,1.4,2.1c0.1,0.1,0.2,0.3,0.2,0.4c0.5,0.9,1,1.8,1.4,2.7
										c0,0.1,0.1,0.2,0.1,0.3c0.3,0.7,0.6,1.4,0.9,2.1c0.1,0.2,0.1,0.3,0.2,0.5c0.2,0.5,0.4,1.1,0.6,1.7c0,0.1,0.1,0.3,0.1,0.4
										c0,0.2,0.1,0.3,0.1,0.5c0.1,0.3,0.2,0.6,0.3,0.9c0,0.1,0.1,0.3,0.1,0.5c0.1,0.2,0.1,0.4,0.2,0.6c0.1,0.3,0.2,0.6,0.2,1
										c0.1,0.6,0.3,1.3,0.4,1.9c0,0.2,0.1,0.3,0.1,0.5c0,0.2,0.1,0.3,0.1,0.5c0,0.1,0,0.3,0.1,0.4c0,0.1,0,0.2,0,0.3
										c0,0.2,0,0.3,0.1,0.5c0,0,0,0,0,0c0,0.1,0,0.3,0,0.4c0,0.4,0.1,0.8,0.1,1.2c0,0.2,0,0.4,0,0.5c0,0.1,0,0.2,0,0.4
										C152,47.3,152,48.1,152,48.9z M175.7,52.5c0-0.3-0.1-0.7-0.3-1.2c0-0.1-0.1-0.2-0.1-0.3c0-0.1,0-0.1-0.1-0.2
										c-1.5-4.2-6.7-14.2-12.1-24.3c0,0,0-0.1-0.1-0.1c-1.5-2.7-3.1-5.6-4.6-8.3C153,8.2,148-0.6,147.8-0.9c0,0-3.3,5.8-7.7,13.7
										c0.8,0.4,1.5,0.8,2.2,1.2l0.1-0.2c0,0,0,0.1,0,0.2c4.1,2.4,7.8,5.4,11,8.8c7.9,8.5,12.8,20,12.8,32.6c0,4.5-0.6,9-1.8,13.4
										c-0.7,2.5-1.7,5-2.8,7.3c-0.7,1.3-1.4,2.7-2.4,4.1c-1.5,2.3-3.3,4.8-5.5,7.6c1.4,0,2.7,0,3.9-0.2c8.3-1,12.1-5.7,12.1-5.7
										c3.1-3.2,5.4-7.6,6.5-11.3c0.8-2.7,1.2-5.4,1.2-8.1C177.4,59.2,176.8,55.8,175.7,52.5z"/>
								</defs>
								<use xlink:href="#SVGID_00000034073025122379798100000016871196635795637432_"  style="overflow:visible;fill:#339CD6;"/>
								<clipPath id="SVGID_00000048497142025967721040000014442922671969509261_">
									<use xlink:href="#SVGID_00000034073025122379798100000016871196635795637432_"  style="overflow:visible;"/>
								</clipPath>
							</g>
						</g>
					</g>
				</g>
			</g>
		</g>
	</g>
	<g>
		<path class="st4" d="M39,275.1c-5.5-2.3-8.8-3.8-9.8-4.4c-2.7-1.7-4-3.7-4-6.2c0-3.4,1.1-8,10.8-8c3.7,0,7.3,0.6,10.9,1.8l1.3,0.4
			l1.4-11.7l-1-0.2c-4-0.9-8-1.3-12.1-1.3c-7.6,0-13.8,1.9-18.2,5.6c-4.3,3.6-6.5,8.6-6.5,14.6c0,5,1.6,9.2,4.8,12.3
			c2.2,2.1,5.6,4.1,10.2,6c6.6,2.7,8.9,3.8,9.6,4.3c2.7,1.7,4,3.8,4,6.4c0,3.8-1.2,8.8-11.6,8.8c-4.5,0-9-0.9-13.5-2.6l-1.4-0.5
			L12.4,313l0.9,0.3c4.5,1.2,9.6,1.8,15,1.8c7.6,0,13.8-2,18.5-6c4.7-4,7.2-9.3,7.2-15.6c0-4.9-1.6-9-4.9-12.2
			C47,279.1,43.7,277.1,39,275.1z"/>
		<path class="st4" d="M107.7,254.3c-1.7-4.6-6.1-7.7-11-7.7h-5.5l-24.1,67.6h13l5.1-14.4h24.9l4.9,14.4h14.1L107.7,254.3z
			 M88.6,289.1l7.3-20.8c0.6-1.7,1.1-3.5,1.7-5.3c0.5,1.5,1,3.3,1.7,5.4l7.3,20.7H88.6z"/>
		<path class="st4" d="M159.5,258.3c0-6.4-5.2-11.7-11.7-11.7h-1.1v67.6h39.6v-11.5h-26.8V258.3z"/>
		<path class="st4" d="M204.9,246.6h-1.1v67.6h12.8v-55.9C216.6,251.8,211.4,246.6,204.9,246.6z"/>
		<path class="st4" d="M281.8,299.5l-1.4,0.7c-3.8,2-8.1,3-12.9,3c-13.2,0-19.6-7.5-19.6-22.8c0-6.9,1.5-12.4,4.5-16.4
			c3.3-4.3,7.9-6.5,14.2-6.5c4.5,0,9,0.8,13.4,2.3l1.3,0.5l1.9-12l-0.9-0.3c-4.5-1.4-9.5-2.1-14.8-2.1c-10.9,0-19.4,3.5-25.2,10.3
			c-5.4,6.3-8.2,15-8.2,25.9c0,9.7,2.4,17.5,7,23.1c5.3,6.4,13.4,9.6,24,9.6c6.4,0,12.5-1.1,18-3.3l0.9-0.3L281.8,299.5z"/>
	</g>
	<g>
		<path class="st4" d="M62.2,170h-6.5c-6,0-6-2.2-6-2.9c0-0.7,0-2.5,3.9-2.5c1.1,0,2.7,0.1,4.7,0.4l1.1,0.2l1.3-8.6l-1.2-0.1
			c-2.7-0.3-4.5-0.4-5.5-0.4c-4.7,0-8.3,1.2-10.9,3.5c-2.3,2-3.4,4.7-3.4,7.8c0,1.1,0.2,2,0.5,2.7c-1-0.1-2.1-0.1-3.2-0.1h-1.1v8.5
			h26.4V170z"/>
		<path class="st4" d="M130,150.3h-1.1v57.3H82.3V162c0-6.4-5.2-11.7-11.8-11.7h-1.1v57.3H48.7c-9,0-15.4-1.7-19-5
			c-3.3-3-5-8.1-5-15.1c0-5.7,1.2-11,3.5-15.9l0.9-2l-14.2,2.4l-0.2,0.6c-1.9,4.8-2.9,10.2-2.9,16.1c0,9.6,2.8,17,8.2,21.8
			c5.8,5.1,15.1,7.7,27.6,7.7h94.3V162C141.8,155.5,136.5,150.3,130,150.3z"/>
		<path class="st4" d="M284.1,195.2c0,7.6-0.5,15-1.6,22.1l-0.1,1h-14.1c-6,0-10.3-0.5-13.1-1.5c-2.5-0.9-4.4-2.4-5.9-4.5
			c-2.7,4.5-7.7,6.7-14.7,6.7c-6.3,0-10.6-2.1-12.8-6.3c-2.4,3.8-6.7,5.7-12.9,5.7h-52v-67.9h1.1c6.5,0,11.8,5.2,11.8,11.7v45.6H209
			c3.1,0,5.2-0.7,6.3-2.2c1.3-1.6,1.9-4.8,1.9-9.3v-19.8h12.9v18.9c0,6.4,0.6,9.1,1.1,10.3c0.8,2,2.6,2.9,5.3,2.9
			c1.9,0,7.8,0,7.8-13.1v-18.9h12.4v21.9c0,4,0.8,6.6,2.4,7.7c1,0.8,3.5,1.7,9.5,1.7h1.8c0.4-4.3,0.6-8.2,0.6-11.5
			c0-6.9-0.6-13.5-1.7-19.8h13C283.5,182.4,284.1,188.7,284.1,195.2z"/>
	</g>
</g>
</svg>
