<?xml version="1.0" encoding="utf-8"?>
<!-- Generator: Adobe Illustrator 27.0.0, SVG Export Plug-In . SVG Version: 6.00 Build 0)  -->
<svg version="1.1" id="Layer_1" xmlns="http://www.w3.org/2000/svg" xmlns:xlink="http://www.w3.org/1999/xlink" x="0px" y="0px"
	 viewBox="0 0 676.1 125.3" style="enable-background:new 0 0 676.1 125.3;" xml:space="preserve">
<style type="text/css">
	.st0{fill:#2A7C61;}
	.st1{fill:#A4D5AD;}
	.st2{clip-path:url(#SVGID_00000176740663320086402850000018066614605156775333_);}
	.st3{opacity:0.65;fill:#349AD5;}
	.st4{fill:#0E4D89;}
</style>
<g>
	<g>
		<g>
			<g>
				<g>
					<g>
						<path class="st0" d="M380.4,47.6v22.5c0,25.1-8.4,32.5-20.8,36.9l-19.3,7.3l-2.1,0.8l-2.1-0.8l-19.3-7.3
							c-12.4-4.3-20.8-11.8-20.8-36.9V47.6c1.7,22.3,12.8,31.9,12.8,31.9c2.7,3.3,6.3,5.9,10.5,7.4l19,7.4l19-7.4
							c4.2-1.5,7.8-4.1,10.5-7.4C367.6,79.4,378.7,69.8,380.4,47.6z"/>
						<path class="st1" d="M308.6,79.4L308.6,79.4c0,0-11.1-9.6-12.8-31.9V29.5l0.1-0.1l7.4-4.9c0,14.2,0,40.2,0,40.2
							C303.3,70.2,305.3,75.4,308.6,79.4z"/>
					</g>
					<g>
						<path class="st1" d="M380.4,29.5v18.1c-1.7,22.3-12.8,31.9-12.8,31.9v0c3.3-4.1,5.2-9.2,5.2-14.7c0,0,0-26.1,0-40.2l7.4,4.9
							L380.4,29.5z"/>
					</g>
				</g>
				<g>
					<defs>
						<path id="SVGID_1_" d="M360.9,55.9c0-12.6-22.8-45.7-22.8-45.7s-22.8,33.1-22.8,45.7s10.2,22.8,22.8,22.8
							C350.7,78.7,360.9,68.5,360.9,55.9z"/>
					</defs>
					<clipPath id="SVGID_00000029767173843477345290000004285326071787505086_">
						<use xlink:href="#SVGID_1_"  style="overflow:visible;"/>
					</clipPath>
					<g style="clip-path:url(#SVGID_00000029767173843477345290000004285326071787505086_);">
						<path class="st3" d="M328.7,22l2.9-5.2l14.3,8.2l9.8,19l2.3,27.7l-14.7,11.8c0,0-16.7,1-21.5-2.8l4.3-35.8L328.7,22z"/>
						<g>
							<g>
								<defs>
									<path id="SVGID_00000064338074674750185380000009979671261633303712_" d="M341.7,49.1c0,0.2,0,0.3,0,0.5c0,0.2,0,0.3,0,0.5
										c0,0.3,0,0.5,0,0.8c0,0.1,0,0.2,0,0.3c0,0.1,0,0.3,0,0.4c0,0.2,0,0.3,0,0.5c0,0.2,0,0.3,0,0.5c0,0.3-0.1,0.7-0.1,1
										c0,0.1,0,0.3-0.1,0.4c0,0.1,0,0.2,0,0.3c-0.1,0.9-0.3,1.8-0.5,2.7c-2.4,10.4-9.5,19.1-18.9,23.6c0,0,0,0,0,0
										c-0.1,0-0.1,0-0.2,0c-4.1-2.4-7.3-8-8.6-12.3c-1.7-5.4-1.2-10.8,0.5-16c0.1-2.5,8.3-17.9,15.1-30.4c0.7,0.6,1.4,1.1,2,1.8
										c0.1,0.1,0.2,0.2,0.3,0.3c0.1,0.1,0.2,0.2,0.3,0.3c0.1,0.1,0.2,0.2,0.3,0.3c0.1,0.1,0.2,0.2,0.3,0.3
										c0.1,0.1,0.1,0.1,0.2,0.2c0.8,0.9,1.6,1.8,2.3,2.7c0.1,0.1,0.2,0.2,0.3,0.3c0.1,0.1,0.1,0.1,0.2,0.2
										c0.1,0.1,0.1,0.2,0.2,0.2c0.1,0.1,0.2,0.2,0.3,0.4c0.1,0.1,0.2,0.2,0.3,0.4c0.4,0.6,0.8,1.2,1.2,1.9
										c0.1,0.1,0.1,0.2,0.2,0.3c0.4,0.8,0.9,1.6,1.3,2.4c0,0.1,0.1,0.2,0.1,0.2c0.3,0.6,0.6,1.2,0.8,1.9c0.1,0.1,0.1,0.3,0.2,0.4
										c0.2,0.5,0.4,1,0.5,1.5c0,0.1,0.1,0.2,0.1,0.4c0,0.1,0.1,0.3,0.1,0.4c0.1,0.2,0.2,0.5,0.2,0.8c0,0.1,0.1,0.3,0.1,0.4
										c0,0.2,0.1,0.3,0.1,0.5c0.1,0.3,0.1,0.6,0.2,0.8c0.1,0.6,0.2,1.1,0.3,1.7c0,0.1,0.1,0.3,0.1,0.4c0,0.1,0,0.3,0.1,0.4
										c0,0.1,0,0.3,0.1,0.4c0,0.1,0,0.2,0,0.3c0,0.1,0,0.3,0.1,0.4c0,0,0,0,0,0c0,0.1,0,0.2,0,0.3c0,0.3,0.1,0.7,0.1,1
										c0,0.2,0,0.3,0,0.5c0,0.1,0,0.2,0,0.3C341.7,47.8,341.7,48.5,341.7,49.1z M362.6,52.3c0-0.2-0.1-0.6-0.2-1
										c0-0.1-0.1-0.2-0.1-0.3c0-0.1,0-0.1-0.1-0.2c-1.3-3.7-5.9-12.5-10.7-21.4c0,0,0-0.1-0.1-0.1c-1.3-2.4-2.7-4.9-4.1-7.3
										c-4.8-8.7-9.2-16.5-9.4-16.7c0,0-2.9,5.2-6.7,12.1c0.7,0.3,1.3,0.7,2,1.1l0.1-0.1c0,0,0,0.1,0,0.2c3.6,2.1,6.9,4.7,9.7,7.8
										c7,7.5,11.3,17.6,11.3,28.7c0,4-0.5,8-1.6,11.8c-0.6,2.2-1.5,4.4-2.5,6.5c-0.6,1.1-1.3,2.3-2.1,3.6
										c-1.3,2.1-2.9,4.3-4.9,6.7c1.2,0,2.4,0,3.5-0.1c7.3-0.8,10.7-5,10.7-5c2.7-2.8,4.7-6.7,5.8-10c0.7-2.4,1.1-4.7,1-7.1
										C364.1,58.2,363.5,55.2,362.6,52.3z"/>
								</defs>
								<use xlink:href="#SVGID_00000064338074674750185380000009979671261633303712_"  style="overflow:visible;fill:#349AD5;"/>
								<clipPath id="SVGID_00000078017176065357464330000000042410681952364979_">
									<use xlink:href="#SVGID_00000064338074674750185380000009979671261633303712_"  style="overflow:visible;"/>
								</clipPath>
							</g>
						</g>
					</g>
				</g>
			</g>
		</g>
	</g>
	<g>
		<path class="st4" d="M31.5,71.9c-4.8-2-7.8-3.3-8.6-3.9c-2.4-1.5-3.5-3.3-3.5-5.5c0-3,1-7,9.5-7c3.2,0,6.5,0.5,9.6,1.6l1.2,0.4
			l1.2-10.3L40,47c-3.5-0.8-7.1-1.1-10.6-1.1c-6.7,0-12.1,1.7-16.1,4.9C9.5,54,7.6,58.3,7.6,63.7c0,4.4,1.4,8.1,4.3,10.8
			c1.9,1.9,4.9,3.6,9,5.3c5.9,2.4,7.9,3.4,8.5,3.8c2.4,1.5,3.5,3.4,3.5,5.7c0,3.3-1.1,7.8-10.3,7.8c-3.9,0-8-0.8-11.9-2.3l-1.2-0.5
			l-1.3,11l0.8,0.2c4,1.1,8.4,1.6,13.3,1.6c6.7,0,12.2-1.8,16.4-5.3c4.2-3.5,6.3-8.2,6.3-13.8c0-4.3-1.4-8-4.3-10.8
			C38.7,75.4,35.7,73.6,31.5,71.9z"/>
		<path class="st4" d="M92.1,53.5c-1.5-4.1-5.4-6.8-9.7-6.8h-4.8l-21.2,59.6h11.5l4.5-12.7h22l4.3,12.7h12.5L92.1,53.5z M75.3,84.2
			l6.4-18.3c0.5-1.5,1-3.1,1.5-4.7c0.4,1.3,0.9,2.9,1.5,4.7l6.5,18.2H75.3z"/>
		<path class="st4" d="M137.8,57c0-5.7-4.6-10.3-10.3-10.3h-1v59.6h34.9V96.2h-23.6V57z"/>
		<path class="st4" d="M177.9,46.7h-1v59.6h11.3V57C188.2,51.3,183.6,46.7,177.9,46.7z"/>
		<path class="st4" d="M245.7,93.4l-1.2,0.6c-3.3,1.7-7.2,2.6-11.4,2.6c-11.6,0-17.3-6.6-17.3-20.1c0-6.1,1.3-10.9,4-14.5
			c2.9-3.8,7-5.7,12.5-5.7c4,0,8,0.7,11.8,2.1l1.1,0.4l1.7-10.6l-0.8-0.3c-4-1.2-8.4-1.8-13.1-1.8c-9.6,0-17.1,3.1-22.2,9.1
			c-4.8,5.6-7.2,13.3-7.2,22.8c0,8.6,2.1,15.4,6.2,20.4c4.7,5.6,11.8,8.5,21.2,8.5c5.7,0,11-1,15.8-2.9l0.8-0.3L245.7,93.4z"/>
	</g>
	<g>
		<path class="st4" d="M472.9,63.8h-5.7c-5.3,0-5.3-1.9-5.3-2.6c0-0.6,0-2.2,3.4-2.2c1,0,2.4,0.1,4.2,0.4l1,0.1l1.1-7.6l-1-0.1
			c-2.4-0.2-4-0.3-4.9-0.3c-4.1,0-7.4,1-9.6,3.1c-2,1.8-3,4.1-3,6.9c0,1,0.2,1.8,0.4,2.4c-0.9-0.1-1.8-0.1-2.8-0.1h-1v7.5h23.2V63.8
			z"/>
		<path class="st4" d="M532.7,46.4h-1v50.5h-41V56.7c0-5.7-4.6-10.3-10.4-10.3h-1v50.5H461c-7.9,0-13.6-1.5-16.8-4.4
			c-2.9-2.6-4.4-7.1-4.4-13.3c0-5,1-9.7,3.1-14l0.8-1.7l-12.5,2.1l-0.2,0.5c-1.7,4.2-2.5,9-2.5,14.2c0,8.5,2.4,15,7.2,19.2
			c5.1,4.5,13.3,6.8,24.3,6.8h83.1V56.7C543.1,51,538.5,46.4,532.7,46.4z"/>
		<path class="st4" d="M668.5,86c0,6.7-0.5,13.2-1.4,19.4l-0.1,0.9h-12.4c-5.3,0-9.1-0.4-11.6-1.3c-2.2-0.8-3.9-2.2-5.2-4
			c-2.4,3.9-6.8,5.9-12.9,5.9c-5.5,0-9.3-1.9-11.3-5.6c-2.1,3.3-5.9,5-11.4,5h-45.9V46.4h1c5.8,0,10.4,4.6,10.4,10.3v40.2h34.6
			c2.7,0,4.6-0.7,5.6-2c1.1-1.4,1.7-4.2,1.7-8.2V69.3H621v16.6c0,5.6,0.5,8,1,9.1c0.7,1.7,2.3,2.6,4.7,2.6c1.7,0,6.9,0,6.9-11.5
			V69.3h11v19.3c0,3.5,0.7,5.8,2.1,6.8c0.9,0.7,3.1,1.5,8.4,1.5h1.6c0.4-3.8,0.5-7.2,0.5-10.2c0-6.1-0.5-11.9-1.5-17.4h11.5
			C668.1,74.7,668.5,80.3,668.5,86z"/>
	</g>
</g>
</svg>
